# xmcd
#
# Track frame offsets:
#  150
#  8790
#  19257
#  35065
#  53057
#  72817
#  96279
#  109720
#  121217
#  136160
#  148152
#  180755
#  190715
#
# Disc length: 2792 seconds
#
# Revision: 1
# Processed by: cddbd v1.5.1PL0 Copyright (c) Steve Scherf et al.
# Submitted via: Collectorz.com_Music_Collector 6.9
#
DISCID=a90ae60d
DTITLE=The Hollywood Blue Flames - Soul Sanctuary
DYEAR=2005
DGENRE=Blues -  Blues West Coast Style
TTITLE0=Flambed
TTITLE1=Nit Wit
TTITLE2=The Land of Calio
TTITLE3=Soon Forgotten
TTITLE4=He's a Blues Man
TTITLE5=Jo Angelyn
TTITLE6=I'm a Lucky, Lucky Man
TTITLE7=Black Cat Bone
TTITLE8=Soul Sanctuary
TTITLE9=My National Inquirer Baby
TTITLE10=Coco Puffin'
TTITLE11=Big Foot's Boogie
TTITLE12=You're Sweet
EXTD=
EXTT0=
EXTT1=
EXTT2=
EXTT3=
EXTT4=
EXTT5=
EXTT6=
EXTT7=
EXTT8=
EXTT9=
EXTT10=
EXTT11=
EXTT12=
PLAYORDER=
